<?xml version="1.0" encoding="UTF-8" standalone="no"?>
<!DOCTYPE svg PUBLIC "-//W3C//DTD SVG 1.1//EN" "http://www.w3.org/Graphics/SVG/1.1/DTD/svg11.dtd">
<svg width="100%" height="100%" viewBox="0 0 2856 346" version="1.1" xmlns="http://www.w3.org/2000/svg" xmlns:xlink="http://www.w3.org/1999/xlink" xml:space="preserve" xmlns:serif="http://www.serif.com/" style="fill-rule:evenodd;clip-rule:evenodd;stroke-linejoin:round;stroke-miterlimit:2;">
    <g transform="matrix(4.16667,0,0,4.16667,838.417,-43.6667)">
        <g transform="matrix(1,0,0,1,-201.22,10.029)">
            <rect x="0" y="11.451" width="82" height="72" style="fill:rgb(21,119,139);fill-rule:nonzero;"/>
        </g>
        <g transform="matrix(1,0,0,1,-201.22,10.029)">
            <path d="M38.15,28.546C37.335,28.546 36.521,28.663 35.765,28.895L35.765,54.196C36.405,54.37 37.277,54.544 38.15,54.544C43.326,54.544 45.943,51.229 45.943,41.4C45.943,31.571 43.558,28.546 38.15,28.546ZM37.743,62.396C31.868,62.396 26.808,61.699 22.737,60.187L22.737,23.196C26.866,21.742 31.577,20.985 37.103,20.985C53.621,20.985 59.262,30.408 59.262,41.634C59.262,52.567 53.736,62.396 37.743,62.396Z" style="fill:white;fill-rule:nonzero;"/>
        </g>
        <g transform="matrix(1,0,0,1,-201.22,10.029)">
            <rect x="201" y="0.451" width="82" height="72" style="fill:rgb(0,51,63);fill-rule:nonzero;"/>
        </g>
        <g transform="matrix(1,0,0,1,-201.22,10.029)">
            <path d="M247.673,61.894L236.442,61.894L221.836,21.879L235.919,21.879L241.564,43.05C242.029,44.91 242.32,46.714 242.495,47.877L242.612,47.877C242.786,46.539 243.077,44.794 243.542,43.05L249.303,21.879L262.164,21.879L247.673,61.894Z" style="fill:white;fill-rule:nonzero;"/>
        </g>
        <g transform="matrix(1,0,0,1,-201.22,10.029)">
            <rect x="95" y="11.451" width="93" height="61" style="fill:rgb(131,135,49);fill-rule:nonzero;"/>
        </g>
        <g transform="matrix(1,0,0,1,-201.22,10.029)">
            <path d="M123.584,62.657C118.467,62.657 113.872,61.959 109.975,60.448L112.883,52.596C115.442,53.642 118.525,54.283 121.083,54.283C124.806,54.283 126.725,53.003 126.725,50.676C126.725,44.628 110.905,45.966 110.905,33.635C110.905,26.423 117.419,21.246 127.365,21.246C131.902,21.246 135.856,21.945 139.405,23.457L136.671,30.784C134.519,29.797 131.96,29.273 129.341,29.273C125.911,29.273 123.701,30.494 123.701,32.763C123.701,39.102 140.684,36.542 140.684,49.746C140.684,57.132 133.763,62.657 123.584,62.657Z" style="fill:white;fill-rule:nonzero;"/>
        </g>
        <g transform="matrix(1,0,0,1,-201.22,10.029)">
            <path d="M164.883,29.39L164.883,61.959L151.796,61.959L151.796,29.39L143.712,29.39L143.712,21.945L173.025,21.945L173.025,29.39L164.883,29.39Z" style="fill:white;fill-rule:nonzero;"/>
        </g>
        <g transform="matrix(1,0,0,1,-201.22,10.029)">
            <rect x="0" y="0.451" width="82" height="8" style="fill:rgb(21,119,139);fill-rule:nonzero;"/>
        </g>
        <g transform="matrix(1,0,0,1,-201.22,10.029)">
            <rect x="95" y="0.451" width="93" height="8" style="fill:rgb(131,135,49);fill-rule:nonzero;"/>
        </g>
        <g transform="matrix(1,0,0,1,-201.22,10.029)">
            <rect x="95" y="75.451" width="93" height="8" style="fill:rgb(131,135,49);fill-rule:nonzero;"/>
        </g>
        <g transform="matrix(1,0,0,1,-201.22,10.029)">
            <rect x="201" y="75.451" width="82" height="8" style="fill:rgb(0,51,63);fill-rule:nonzero;"/>
        </g>
        <g transform="matrix(1.98884,0,0,1.98884,95.5301,-137.672)">
            <g>
                <g transform="matrix(1,0,0,1,7.31004,-2.35808)">
                    <path d="M2.232,92.385C1.853,92.385 1.474,92.429 1.182,92.546L1.182,102.818C1.458,102.935 1.853,103.009 2.232,103.009C3.852,103.009 4.596,101.053 4.596,97.712C4.596,94.369 3.852,92.385 2.232,92.385ZM2.188,104.001C1.371,104.001 0.627,103.81 0,103.417L0,92.034C0.627,91.642 1.371,91.451 2.188,91.451C4.611,91.451 5.821,93.816 5.821,97.726C5.821,101.607 4.611,104.001 2.188,104.001Z" style="fill:rgb(17,21,23);fill-rule:nonzero;"/>
                </g>
                <g transform="matrix(1,0,0,1,7.31004,-2.35808)">
                    <path d="M8.044,103.854L8.044,91.598L12.086,91.598L12.086,92.532L9.24,92.532L9.24,97.113L11.809,97.113L11.809,98.047L9.24,98.047L9.24,102.877L12.086,102.877L12.086,103.854L8.044,103.854Z" style="fill:rgb(17,21,23);fill-rule:nonzero;"/>
                </g>
                <g transform="matrix(1,0,0,1,7.31004,-2.35808)">
                    <path d="M17.021,104.001C15.358,104.001 14.322,102.847 14.322,101.169L14.322,91.598L15.518,91.598L15.518,101.199C15.518,102.191 16.058,102.965 17.065,102.965C18.043,102.965 18.611,102.191 18.611,101.199L18.611,91.598L19.721,91.598L19.721,101.169C19.721,102.847 18.699,104.001 17.021,104.001Z" style="fill:rgb(17,21,23);fill-rule:nonzero;"/>
                </g>
                <g transform="matrix(1,0,0,1,7.31004,-2.35808)">
                    <path d="M24.774,92.532L24.774,103.854L23.577,103.854L23.577,92.532L21.564,92.532L21.564,91.598L26.788,91.598L26.788,92.532L24.774,92.532Z" style="fill:rgb(17,21,23);fill-rule:nonzero;"/>
                </g>
                <g transform="matrix(1,0,0,1,7.31004,-2.35808)">
                    <path d="M30.147,104.001C29.447,104.001 28.717,103.826 28.163,103.431L28.513,102.497C28.936,102.774 29.52,102.935 30.03,102.935C31.183,102.935 31.826,101.929 31.826,100.922C31.826,98.003 28.279,97.842 28.279,94.312C28.279,92.546 29.433,91.451 31.11,91.451C31.812,91.451 32.481,91.656 32.964,92.021L32.643,92.866C32.278,92.604 31.738,92.444 31.212,92.444C30.147,92.444 29.477,93.261 29.477,94.312C29.477,97.215 33.051,97.375 33.051,100.922C33.051,102.629 31.898,104.001 30.147,104.001Z" style="fill:rgb(17,21,23);fill-rule:nonzero;"/>
                </g>
                <g transform="matrix(1,0,0,1,7.31004,-2.35808)">
                    <path d="M38.278,104.001C35.944,104.001 34.894,101.55 34.894,97.726C34.894,93.903 35.944,91.451 38.278,91.451C38.936,91.451 39.46,91.642 39.898,92.021L39.577,92.852C39.256,92.604 38.848,92.459 38.395,92.459C36.877,92.459 36.148,94.385 36.148,97.682C36.148,100.966 36.863,102.906 38.381,102.906C38.834,102.906 39.256,102.774 39.577,102.527L39.898,103.431C39.46,103.81 38.936,104.001 38.278,104.001Z" style="fill:rgb(17,21,23);fill-rule:nonzero;"/>
                </g>
                <g transform="matrix(1,0,0,1,7.31004,-2.35808)">
                    <path d="M46.118,103.854L46.118,98.047L42.996,98.047L42.996,103.854L41.799,103.854L41.799,91.598L42.996,91.598L42.996,97.113L46.118,97.113L46.118,91.598L47.314,91.598L47.314,103.854L46.118,103.854Z" style="fill:rgb(17,21,23);fill-rule:nonzero;"/>
                </g>
                <g transform="matrix(1,0,0,1,7.31004,-2.35808)">
                    <path d="M49.814,103.854L49.814,91.598L53.856,91.598L53.856,92.532L51.011,92.532L51.011,97.113L53.578,97.113L53.578,98.047L51.011,98.047L51.011,102.877L53.856,102.877L53.856,103.854L49.814,103.854Z" style="fill:rgb(17,21,23);fill-rule:nonzero;"/>
                </g>
                <g transform="matrix(1,0,0,1,7.31004,-2.35808)">
                    <path d="M61.653,104.001C60.953,104.001 60.224,103.826 59.669,103.431L60.02,102.497C60.442,102.774 61.026,102.935 61.537,102.935C62.689,102.935 63.332,101.929 63.332,100.922C63.332,98.003 59.785,97.842 59.785,94.312C59.785,92.546 60.939,91.451 62.617,91.451C63.318,91.451 63.988,91.656 64.47,92.021L64.149,92.866C63.785,92.604 63.244,92.444 62.719,92.444C61.653,92.444 60.983,93.261 60.983,94.312C60.983,97.215 64.557,97.375 64.557,100.922C64.557,102.629 63.404,104.001 61.653,104.001Z" style="fill:rgb(17,21,23);fill-rule:nonzero;"/>
                </g>
                <g transform="matrix(1,0,0,1,7.31004,-2.35808)">
                    <path d="M69.23,92.532L69.23,103.854L68.034,103.854L68.034,92.532L66.021,92.532L66.021,91.598L71.244,91.598L71.244,92.532L69.23,92.532Z" style="fill:rgb(17,21,23);fill-rule:nonzero;"/>
                </g>
                <g transform="matrix(1,0,0,1,7.31004,-2.35808)">
                    <path d="M75.246,92.357C74.925,92.357 74.56,92.4 74.268,92.517L74.268,97.231C74.486,97.274 74.721,97.274 74.953,97.274C76.326,97.274 77.172,96.253 77.172,94.794C77.172,93.217 76.617,92.357 75.246,92.357ZM77.376,103.854L76.208,100.499C75.843,99.419 75.246,98.267 74.268,97.96L74.268,103.854L73.085,103.854L73.085,92.034C73.699,91.656 74.458,91.451 75.231,91.451C77.448,91.451 78.382,92.794 78.382,94.779C78.382,96.297 77.362,97.595 75.829,97.872C76.588,98.47 77.04,99.434 77.42,100.455L78.703,103.854L77.376,103.854Z" style="fill:rgb(17,21,23);fill-rule:nonzero;"/>
                </g>
                <g transform="matrix(1,0,0,1,7.31004,-2.35808)">
                    <path d="M83.465,94.501C83.363,94.005 83.275,93.408 83.217,92.94L83.188,92.94C83.129,93.408 83.041,94.005 82.939,94.501L81.816,99.93L84.604,99.93L83.465,94.501ZM85.42,103.854L84.778,100.79L81.64,100.79L80.999,103.854L79.816,103.854L82.618,91.598L83.888,91.598L86.69,103.854L85.42,103.854Z" style="fill:rgb(17,21,23);fill-rule:nonzero;"/>
                </g>
                <g transform="matrix(1,0,0,1,7.31004,-2.35808)">
                    <path d="M89.613,92.532L89.613,97.113L92.181,97.113L92.181,98.047L89.613,98.047L89.613,103.854L88.417,103.854L88.417,91.598L92.459,91.598L92.459,92.532L89.613,92.532Z" style="fill:rgb(17,21,23);fill-rule:nonzero;"/>
                </g>
                <g transform="matrix(1,0,0,1,7.31004,-2.35808)">
                    <path d="M97.758,103.854L96.577,103.854L93.892,91.598L95.19,91.598L96.897,100.44C97,100.994 97.102,101.607 97.174,102.177L97.204,102.177C97.291,101.607 97.393,100.994 97.495,100.44L99.232,91.598L100.429,91.598L97.758,103.854Z" style="fill:rgb(17,21,23);fill-rule:nonzero;"/>
                </g>
                <g transform="matrix(1,0,0,1,7.31004,-2.35808)">
                    <path d="M102.184,103.854L102.184,91.598L106.226,91.598L106.226,92.532L103.38,92.532L103.38,97.113L105.948,97.113L105.948,98.047L103.38,98.047L103.38,102.877L106.226,102.877L106.226,103.854L102.184,103.854Z" style="fill:rgb(17,21,23);fill-rule:nonzero;"/>
                </g>
                <g transform="matrix(1,0,0,1,7.31004,-2.35808)">
                    <path d="M110.621,92.357C110.3,92.357 109.936,92.4 109.644,92.517L109.644,97.231C109.863,97.274 110.096,97.274 110.33,97.274C111.701,97.274 112.547,96.253 112.547,94.794C112.547,93.217 111.994,92.357 110.621,92.357ZM112.751,103.854L111.585,100.499C111.22,99.419 110.621,98.267 109.644,97.96L109.644,103.854L108.462,103.854L108.462,92.034C109.075,91.656 109.833,91.451 110.607,91.451C112.825,91.451 113.759,92.794 113.759,94.779C113.759,96.297 112.737,97.595 111.206,97.872C111.964,98.47 112.416,99.434 112.795,100.455L114.08,103.854L112.751,103.854Z" style="fill:rgb(17,21,23);fill-rule:nonzero;"/>
                </g>
                <g transform="matrix(1,0,0,1,7.31004,-2.35808)">
                    <path d="M118.344,92.532L118.344,103.854L117.148,103.854L117.148,92.532L115.134,92.532L115.134,91.598L120.358,91.598L120.358,92.532L118.344,92.532Z" style="fill:rgb(17,21,23);fill-rule:nonzero;"/>
                </g>
                <g transform="matrix(1,0,0,1,7.31004,-2.35808)">
                    <path d="M122.2,103.854L122.2,91.598L126.242,91.598L126.242,92.532L123.396,92.532L123.396,97.113L125.965,97.113L125.965,98.047L123.396,98.047L123.396,102.877L126.242,102.877L126.242,103.854L122.2,103.854Z" style="fill:rgb(17,21,23);fill-rule:nonzero;"/>
                </g>
                <g transform="matrix(1,0,0,1,7.31004,-2.35808)">
                    <rect x="128.535" y="91.598" width="1.198" height="12.256" style="fill:rgb(17,21,23);fill-rule:nonzero;"/>
                </g>
                <g transform="matrix(1,0,0,1,7.31004,-2.35808)">
                    <path d="M134.521,92.385C134.142,92.385 133.763,92.429 133.471,92.546L133.471,102.818C133.748,102.935 134.142,103.009 134.521,103.009C136.141,103.009 136.885,101.053 136.885,97.712C136.885,94.369 136.141,92.385 134.521,92.385ZM134.477,104.001C133.661,104.001 132.916,103.81 132.289,103.417L132.289,92.034C132.916,91.642 133.661,91.451 134.477,91.451C136.9,91.451 138.11,93.816 138.11,97.726C138.11,101.607 136.9,104.001 134.477,104.001Z" style="fill:rgb(17,21,23);fill-rule:nonzero;"/>
                </g>
                <g transform="matrix(1,0,0,1,7.31004,-2.35808)">
                    <rect x="140.392" y="91.598" width="1.196" height="12.256" style="fill:rgb(17,21,23);fill-rule:nonzero;"/>
                </g>
                <g transform="matrix(1,0,0,1,7.31004,-2.35808)">
                    <path d="M147.529,104.001C144.858,104.001 143.866,101.155 143.866,97.726C143.866,94.488 144.887,91.451 147.66,91.451C148.405,91.451 149.046,91.642 149.542,92.021L149.222,92.866C148.842,92.619 148.317,92.459 147.762,92.459C145.719,92.459 145.092,94.968 145.092,97.726C145.092,100.455 145.706,102.978 147.529,102.978C147.879,102.978 148.229,102.921 148.506,102.804L148.506,98.033L147.062,98.033L147.062,97.099L149.673,97.099L149.673,103.431C149.148,103.826 148.374,104.001 147.529,104.001Z" style="fill:rgb(17,21,23);fill-rule:nonzero;"/>
                </g>
                <g transform="matrix(1,0,0,1,7.31004,-2.35808)">
                    <path d="M152.101,103.854L152.101,91.598L156.143,91.598L156.143,92.532L153.297,92.532L153.297,97.113L155.865,97.113L155.865,98.047L153.297,98.047L153.297,102.877L156.143,102.877L156.143,103.854L152.101,103.854Z" style="fill:rgb(17,21,23);fill-rule:nonzero;"/>
                </g>
                <g transform="matrix(1,0,0,1,7.31004,-2.35808)">
                    <path d="M160.539,92.357C160.217,92.357 159.852,92.4 159.56,92.517L159.56,97.231C159.779,97.274 160.013,97.274 160.246,97.274C161.618,97.274 162.464,96.253 162.464,94.794C162.464,93.217 161.91,92.357 160.539,92.357ZM162.668,103.854L161.5,100.499C161.136,99.419 160.539,98.267 159.56,97.96L159.56,103.854L158.378,103.854L158.378,92.034C158.991,91.656 159.75,91.451 160.524,91.451C162.741,91.451 163.675,92.794 163.675,94.779C163.675,96.297 162.654,97.595 161.122,97.872C161.88,98.47 162.333,99.434 162.712,100.455L163.996,103.854L162.668,103.854Z" style="fill:rgb(17,21,23);fill-rule:nonzero;"/>
                </g>
                <g transform="matrix(1,0,0,1,7.31004,-2.35808)">
                    <path d="M169.927,103.854L169.927,91.598L173.969,91.598L173.969,92.532L171.124,92.532L171.124,97.113L173.691,97.113L173.691,98.047L171.124,98.047L171.124,102.877L173.969,102.877L173.969,103.854L169.927,103.854Z" style="fill:rgb(17,21,23);fill-rule:nonzero;"/>
                </g>
                <g transform="matrix(1,0,0,1,7.31004,-2.35808)">
                    <path d="M177.08,103.957C176.642,103.957 176.291,103.606 176.291,103.169C176.291,102.731 176.642,102.367 177.08,102.367C177.518,102.367 177.868,102.731 177.868,103.169C177.868,103.606 177.518,103.957 177.08,103.957Z" style="fill:rgb(17,21,23);fill-rule:nonzero;"/>
                </g>
                <g transform="matrix(1,0,0,1,7.31004,-2.35808)">
                    <path d="M183.327,103.854L182.146,103.854L179.46,91.598L180.759,91.598L182.466,100.44C182.569,100.994 182.671,101.607 182.744,102.177L182.773,102.177C182.86,101.607 182.962,100.994 183.064,100.44L184.801,91.598L185.998,91.598L183.327,103.854Z" style="fill:rgb(17,21,23);fill-rule:nonzero;"/>
                </g>
                <g transform="matrix(1,0,0,1,7.31004,-2.35808)">
                    <path d="M187.212,103.957C186.775,103.957 186.424,103.606 186.424,103.169C186.424,102.731 186.775,102.367 187.212,102.367C187.651,102.367 188,102.731 188,103.169C188,103.606 187.651,103.957 187.212,103.957Z" style="fill:rgb(17,21,23);fill-rule:nonzero;"/>
                </g>
            </g>
        </g>
    </g>
</svg>
