<?xml version="1.0" encoding="utf-8"?>
<!-- Generator: Adobe Illustrator 16.0.4, SVG Export Plug-In . SVG Version: 6.00 Build 0)  -->
<!DOCTYPE svg PUBLIC "-//W3C//DTD SVG 1.1//EN" "http://www.w3.org/Graphics/SVG/1.1/DTD/svg11.dtd">
<svg version="1.1" id="Ebene_2" xmlns="http://www.w3.org/2000/svg" xmlns:xlink="http://www.w3.org/1999/xlink" x="0px" y="0px"
	 width="656.308px" height="190.585px" viewBox="0 0 656.308 190.585" enable-background="new 0 0 656.308 190.585"
	 xml:space="preserve">
<g>
	<path fill="#1A1A18" d="M255.483,140.658v-12.623h-9.312v12.623h-4.499v-27.303h4.499v10.971h9.312v-10.971h4.576v27.303H255.483z"
		/>
	<path fill="#1A1A18" d="M284.372,140.658l-2.208-7.182h-8.837l-2.213,7.182h-4.691l8.953-27.341h5.249l8.721,27.341H284.372z
		 M277.903,118.048h-0.039c0,0-2.804,9.826-3.433,11.641h6.706C280.861,129.099,278.102,119.115,277.903,118.048z"/>
	<path fill="#1A1A18" d="M317.914,140.658l-1.259-16.926c-0.121-1.736-0.199-3.789-0.199-4.617c-0.198,0.908-0.552,2.527-1.065,4.26
		l-4.973,17.283h-3.864l-4.537-16.531c-0.514-1.816-1.027-4.143-1.187-5.051c0,0.908-0.154,3.395-0.276,5.09l-1.181,16.492h-4.459
		l2.483-27.303h6.039l4.184,15.469c0.629,2.285,0.867,3.709,1.027,4.537c0.116-0.828,0.469-2.566,0.982-4.461l4.299-15.545h6.039
		l2.406,27.303H317.914z"/>
	<path fill="#1A1A18" d="M339.511,140.658h-7.932v-27.303h7.219c4.068,0,5.486,0.276,7.181,1.342c2.054,1.303,3.08,3.077,3.08,5.368
		c0,2.92-1.656,5.088-4.697,5.955c4.537,1.104,5.801,4.184,5.801,6.904C350.164,138.33,346.416,140.658,339.511,140.658z
		 M342.078,117.38c-0.552-0.197-1.264-0.316-2.566-0.316H336v7.457h3.864c1.661,0,2.489-0.119,3.356-1.023
		c0.828-0.869,1.065-2.016,1.065-2.725C344.285,119.195,343.38,117.853,342.078,117.38z M342.591,128.505
		c-0.673-0.195-1.225-0.234-2.528-0.234h-3.985v8.639h4.106c3.472,0,4.967-1.971,4.967-4.418
		C345.152,130.556,344.087,128.939,342.591,128.505z"/>
	<path fill="#1A1A18" d="M368.052,141.132c-7.181,0-9.433-3.709-9.433-8.09v-19.688h4.576v18.346c0,4.182,1.501,5.564,4.856,5.564
		c3.312,0,4.93-1.936,4.93-5.564v-18.346h4.537v19.649C377.519,138.013,374.046,141.132,368.052,141.132z"/>
	<path fill="#1A1A18" d="M400.922,140.658l-2.362-4.223c-1.898-3.352-3.157-5.246-4.658-6.746c-0.514-0.512-0.905-0.789-1.777-0.828
		v11.797h-4.454v-27.303h8.323c6.115,0,8.875,3.551,8.875,7.813c0,3.904-2.522,7.496-6.783,7.496
		c0.982,0.514,2.799,3.156,4.223,5.445l4.023,6.549H400.922z M392.125,117.023v8.643h2.329c2.368,0,3.632-0.314,4.46-1.145
		c0.75-0.748,1.22-1.893,1.22-3.314c0-2.76-1.496-4.184-5.52-4.184H392.125z"/>
	<path fill="#1A1A18" d="M424.292,141.013c-3.83,0-6.789-1.223-8.919-3.867c-2.092-2.562-3.036-5.641-3.036-9.939
		c0-5.605,1.694-9.549,5.128-12.078c1.971-1.498,4.101-2.13,6.745-2.13c3.118,0,5.878,0.949,8.13,2.881l-2.291,2.842
		c-1.893-1.463-3.67-2.092-5.757-2.092c-5.05,0-6.904,4.418-6.904,10.811c0,3.828,0.706,6.51,2.009,8.049
		c1.104,1.303,3.08,2.051,5.172,2.051c1.418,0,2.6-0.316,3.626-0.869v-7.1h-4.652l-0.635-3.709h9.907v12.861
		C430.325,140.224,427.328,141.013,424.292,141.013z"/>
	<path fill="#1A1A18" d="M442.291,140.658v-27.303h4.658v27.303H442.291z"/>
	<path fill="#1A1A18" d="M463.519,141.169c-3.113,0-6.271-0.828-8.953-2.445l1.733-3.471c2.445,1.418,4.614,2.248,7.38,2.248
		c3.35,0,5.364-1.619,5.364-4.34c0-2.012-1.264-3.273-4.062-4.062l-2.919-0.828c-2.49-0.711-4.262-1.738-5.288-3.279
		c-0.751-1.104-1.143-2.406-1.143-3.984c0-4.812,3.786-8.085,9.268-8.085c3.118,0,6.236,0.905,8.644,2.604l-2.054,3.196
		c-2.522-1.502-4.261-2.092-6.431-2.092c-2.682,0-4.459,1.457-4.459,3.709c0,1.695,0.949,2.564,3.632,3.354l3.234,0.947
		c3.946,1.143,6.706,3.67,6.706,7.771C474.171,136.947,470.506,141.169,463.519,141.169z"/>
	<path fill="#1A1A18" d="M492.568,141.093c-3.632,0-6.508-1.381-8.644-3.947c-2.048-2.482-3.113-5.801-3.113-9.744
		c0-3.275,0.591-5.996,1.816-8.287c2.047-3.906,5.795-6.273,10.056-6.273c2.645,0,5.172,0.789,6.789,2.13l-2.092,3
		c-1.457-1.066-2.958-1.541-4.652-1.541c-2.33,0-4.262,1.186-5.448,3.277c-0.943,1.658-1.418,3.943-1.418,7.18
		c0,3.354,0.353,5.246,1.064,6.787c1.182,2.605,3.434,3.865,6.077,3.865c1.932,0,3.351-0.514,4.891-1.734l2.13,2.881
		C497.894,140.304,495.488,141.093,492.568,141.093z"/>
	<path fill="#1A1A18" d="M519.994,140.658v-12.623h-9.312v12.623h-4.492v-27.303h4.492v10.971h9.312v-10.971h4.581v27.303H519.994z"
		/>
	<path fill="#1A1A18" d="M534.957,140.658v-27.303h15.151l-0.591,3.709h-10.023v7.457h8.406v3.75h-8.323v8.521h10.929v3.865H534.957
		z"/>
	<path fill="#1A1A18" d="M572.484,140.658l-2.368-4.223c-1.893-3.352-3.157-5.246-4.652-6.746c-0.514-0.512-0.911-0.789-1.777-0.828
		v11.797h-4.46v-27.303h8.323c6.115,0,8.881,3.551,8.881,7.813c0,3.904-2.528,7.496-6.789,7.496
		c0.988,0.514,2.804,3.156,4.223,5.445l4.023,6.549H572.484z M563.686,117.023v8.643h2.329c2.368,0,3.626-0.314,4.454-1.145
		c0.751-0.748,1.226-1.893,1.226-3.314c0-2.76-1.502-4.184-5.525-4.184H563.686z"/>
	<path fill="#1A1A18" d="M256.035,189.992l-2.208-7.18h-8.837l-2.213,7.18h-4.691l8.953-27.34h5.249l8.721,27.34H256.035z
		 M249.566,167.384h-0.039c0,0-2.804,9.824-3.433,11.639h6.706C252.524,178.431,249.759,168.451,249.566,167.384z"/>
	<path fill="#1A1A18" d="M285.321,189.992l-6.115-12.824c-1.458-3.035-2.958-6.469-3.472-8.086l-0.116,0.117
		c0.199,2.289,0.237,5.172,0.276,7.578l0.16,13.215h-4.459v-27.301h5.127l6.629,13.334c1.264,2.525,2.445,5.76,2.804,7.023
		l0.116-0.117c-0.116-1.381-0.392-5.289-0.392-7.771l-0.083-12.469h4.299v27.301H285.321z"/>
	<path fill="#1A1A18" d="M326.606,190.15h-5.21l-2.798-12.664c-0.911-4.104-1.341-7.891-1.341-7.891h-0.122
		c0,0-0.707,4.457-1.38,7.771l-2.644,12.783h-5.326l-6.507-27.459h4.852l2.721,12.703c0.949,4.418,1.462,8.76,1.462,8.76h0.116
		c0,0,0.789-5.131,1.501-8.443l2.837-13.02h5.089l2.842,13.572c0.673,3.234,1.341,7.693,1.341,7.693h0.122
		c0,0,0.905-5.762,1.579-8.877l2.6-12.389h4.735L326.606,190.15z"/>
	<path fill="#1A1A18" d="M358.178,189.992l-2.208-7.18h-8.837l-2.213,7.18h-4.691l8.953-27.34h5.25l8.721,27.34H358.178z
		 M351.709,167.384h-0.038c0,0-2.805,9.824-3.434,11.639h6.706C354.667,178.431,351.909,168.451,351.709,167.384z"/>
	<path fill="#1A1A18" d="M387.543,189.992h-13.966v-27.301h4.614v23.555h10.102L387.543,189.992z"/>
	<path fill="#1A1A18" d="M411.459,166.476h-6.866v23.516h-4.537v-23.516h-6.905v-3.785h18.898L411.459,166.476z"/>
	<path fill="#1A1A18" d="M432.5,190.111h-4.223l-9.195-27.42h4.973l4.93,15.465c1.109,3.473,1.424,5.484,1.424,5.484h0.077
		c0,0,0.314-1.658,1.655-5.721l5.012-15.229h4.736L432.5,190.111z"/>
	<path fill="#1A1A18" d="M451.602,189.992v-27.301h15.151l-0.591,3.709h-10.023v7.457h8.406v3.748h-8.329v8.521h10.935v3.865
		H451.602z"/>
	<path fill="#1A1A18" d="M493.076,189.992l-2.368-4.221c-1.894-3.354-3.157-5.248-4.658-6.748c-0.508-0.514-0.905-0.789-1.772-0.828
		v11.797h-4.459v-27.301h8.323c6.115,0,8.881,3.549,8.881,7.811c0,3.906-2.528,7.498-6.789,7.498
		c0.988,0.51,2.804,3.154,4.223,5.443l4.023,6.549H493.076z M484.277,166.359V175h2.33c2.362,0,3.626-0.314,4.454-1.143
		c0.75-0.752,1.225-1.895,1.225-3.318c0-2.76-1.501-4.18-5.524-4.18H484.277z"/>
	<path fill="#1A1A18" d="M510.445,189.992v-27.301h15.151l-0.591,3.709h-10.023v7.457h8.4v3.748h-8.323v8.521h10.929v3.865H510.445z
		"/>
	<path fill="#1A1A18" d="M538.544,189.992v-27.301h4.658v27.301H538.544z"/>
	<path fill="#1A1A18" d="M571.258,189.992l-6.115-12.824c-1.463-3.035-2.959-6.469-3.472-8.086l-0.122,0.117
		c0.199,2.289,0.238,5.172,0.276,7.578l0.16,13.215h-4.46v-27.301h5.128l6.629,13.334c1.264,2.525,2.45,5.76,2.804,7.023
		l0.116-0.117c-0.116-1.381-0.393-5.289-0.393-7.771l-0.077-12.469h4.3v27.301H571.258z"/>
	<path fill="#1A1A18" d="M599.993,181.195v0.314c0,2.762,1.026,5.682,4.929,5.682c1.854,0,3.472-0.67,4.974-1.973l1.694,2.645
		c-2.087,1.773-4.493,2.643-7.181,2.643c-5.642,0-9.19-4.064-9.19-10.457c0-3.51,0.751-5.838,2.484-7.809
		c1.617-1.855,3.593-2.686,6.115-2.686c1.976,0,3.786,0.514,5.486,2.051c1.733,1.578,2.605,4.025,2.605,8.682v0.908H599.993z
		 M603.818,172.83c-2.445,0-3.786,1.932-3.786,5.17h7.379C607.411,174.761,605.987,172.83,603.818,172.83z"/>
	<path fill="#1A1A18" d="M620.354,190.585c-1.733,0-3.118-1.463-3.118-3.236c0-1.736,1.341-3.115,3.041-3.115
		c1.733,0,3.157,1.379,3.157,3.115C623.434,189.123,622.01,190.585,620.354,190.585z"/>
	<path fill="#1A1A18" d="M640.362,190.111h-4.222l-9.195-27.42h4.973l4.929,15.465c1.109,3.473,1.424,5.484,1.424,5.484h0.077
		c0,0,0.315-1.658,1.656-5.721l5.012-15.229h4.735L640.362,190.111z"/>
	<path fill="#1A1A18" d="M653.234,190.585c-1.739,0-3.119-1.463-3.119-3.236c0-1.736,1.342-3.115,3.036-3.115
		c1.738,0,3.157,1.379,3.157,3.115C656.308,189.123,654.889,190.585,653.234,190.585z"/>
</g>
<path fill="#B51D28" d="M241.714,68.808h13.741V38.163h19.772v30.646h14.036V0.096h-14.036v26.695h-19.772V0.096h-13.741V68.808
	L241.714,68.808z M306.069,68.808h14.438l4.844-16.31h20.162l4.85,16.31h14.822L343.533,0.075h-14.922L306.069,68.808
	L306.069,68.808z M332.368,28.271c1.282-5.135,3.255-13.247,3.255-13.247s2.08,9.002,2.776,12.166
	c1.483,6.624,3.751,13.835,3.751,13.835h-13.445C330.188,36.479,331.08,33.217,332.368,28.271L332.368,28.271z M393.86,68.815
	h12.558L430.343,0l-14.538,0.096l-11.662,34.009c-1.087,3.462-1.683,5.146-2.77,8.8c-0.592,2.373-0.792,2.967-1.188,4.944
	c-0.384-1.878-0.597-2.571-0.992-4.248c-0.786-2.97-1.872-6.525-2.168-7.714L385.654,0.096H370.53L393.86,68.815"/>
<g>
	<polygon fill="#C5C6C6" points="52.275,190.029 52.275,137.761 0.019,190.029 	"/>
	<polygon fill="#C5C6C6" points="68.817,121.216 68.817,190.029 121.092,190.029 121.092,68.946 121.073,68.946 68.816,121.216 	"/>
	<polygon fill="#C5C6C6" points="137.616,52.399 137.633,52.399 137.633,190.029 189.908,190.029 189.908,0.13 189.873,0.13 	"/>
</g>
<g>
	<polygon fill="#B51D28" points="52.275,137.757 0,137.757 0,190.029 0.019,190.029 52.275,137.761 	"/>
	<polygon fill="#B51D28" points="0,68.946 0,121.216 68.816,121.216 121.073,68.946 	"/>
	<polygon fill="#B51D28" points="0,0.13 0,52.399 137.616,52.399 189.873,0.13 	"/>
</g>
<g>
</g>
<g>
</g>
<g>
</g>
<g>
</g>
<g>
</g>
<g>
</g>
<g>
</g>
<g>
</g>
<g>
</g>
<g>
</g>
<g>
</g>
<g>
</g>
</svg>
