<?xml version="1.0" encoding="UTF-8"?>
<svg width="890px" height="231px" viewBox="0 0 890 231" version="1.1" xmlns="http://www.w3.org/2000/svg" xmlns:xlink="http://www.w3.org/1999/xlink">
    <!-- Generator: Sketch 46.1 (44463) - http://www.bohemiancoding.com/sketch -->
    <title>arbeitsgemeinschaft-strafrecht</title>
    <desc>Created with Sketch.</desc>
    <defs></defs>
    <g id="Page-1" stroke="none" stroke-width="1" fill="none" fill-rule="evenodd">
        <g id="arbeitsgemeinschaft-strafrecht">
            <g id="arbeitsgemeinschaft-medizinrecht-weblogo-02-copy">
                <g id="Group" fill-rule="nonzero">
                    <path d="M8.4260355,132.609091 L42.3934911,59.3181818 C42.3934911,59.3181818 53.7159763,34.0090909 68.1982249,45.8727273 C70.8313609,47.9818182 74.2544379,53.5181818 76.3609467,61.6909091 C78.4674556,70.1272727 81.3639053,87.5272727 81.3639053,87.7909091 C81.3639053,87.7909091 76.6242604,69.0727273 68.9881657,63.5363636 C60.5621302,57.2090909 52.9260355,66.9636364 50.8195266,71.1818182 L12.6390533,153.436364 L8.4260355,132.609091" id="Shape" fill="#A32B37"></path>
                    <path d="M16.5887574,170.572727 L50.556213,97.2818182 C50.556213,97.2818182 61.8786982,71.9727273 76.3609467,83.8363636 C78.9940828,85.9454545 82.4171598,91.4818182 84.5236686,99.6545455 C86.6301775,108.090909 89.5266272,125.490909 89.5266272,125.754545 C89.5266272,125.754545 84.7869822,107.036364 77.1508876,101.5 C68.7248521,95.1727273 61.0887574,104.927273 58.9822485,109.145455 L20.5384615,191.4 L16.5887574,170.572727" id="Shape" fill="#A32B37"></path>
                    <path d="M24.4881657,208.8 L58.4556213,135.509091 C58.4556213,135.509091 69.7781065,110.2 84.260355,122.063636 C86.8934911,124.172727 90.316568,129.709091 92.4230769,137.881818 C94.5295858,146.318182 97.4260355,163.718182 97.4260355,163.981818 C97.4260355,163.981818 92.6863905,145.263636 85.0502959,139.727273 C76.6242604,133.4 68.9881657,143.154545 66.8816568,147.372727 L28.4378698,229.627273 L24.4881657,208.8" id="Shape" fill="#A32B37"></path>
                    <path d="M0,94.6454545 L33.9674556,21.3545455 C33.9674556,21.3545455 45.2899408,-3.95454545 59.7721893,7.90909091 C62.4053254,10.0181818 65.8284024,15.5545455 67.9349112,23.7272727 C70.0414201,32.1636364 72.9378698,49.5636364 72.9378698,49.8272727 C72.9378698,49.8272727 68.1982249,31.1090909 60.5621302,25.5727273 C52.1360947,19.2454545 44.5,29 42.3934911,33.2181818 L3.94970414,115.736364 L0,94.6454545" id="Shape" fill="#A32B37"></path>
                    <path d="M174.576923,134.718182 L140.872781,208.272727 C140.872781,208.272727 129.550296,233.581818 115.068047,221.718182 C112.434911,219.609091 109.011834,214.072727 106.905325,205.9 C104.798817,197.463636 101.902367,180.063636 101.902367,179.8 C101.902367,179.8 106.642012,198.518182 114.278107,204.054545 C122.704142,210.381818 130.340237,200.627273 132.446746,196.409091 L170.890533,113.890909 L174.576923,134.718182" id="Shape" fill="#C0C0C0"></path>
                    <path d="M166.150888,97.0181818 L132.446746,170.309091 C132.446746,170.309091 121.12426,195.618182 106.642012,183.754545 C104.008876,181.645455 100.585799,176.109091 98.4792899,167.936364 C96.3727811,159.5 93.4763314,142.1 93.4763314,141.836364 C93.4763314,141.836364 98.2159763,160.554545 105.852071,166.090909 C114.278107,172.418182 121.914201,162.663636 124.02071,158.445455 L162.464497,75.9272727 L166.150888,97.0181818" id="Shape" fill="#C0C0C0"></path>
                    <path d="M158.251479,59.0545455 L124.284024,132.345455 C124.284024,132.345455 112.961538,157.654545 98.4792899,145.790909 C95.8461538,143.681818 92.4230769,138.145455 90.316568,129.972727 C88.2100592,121.536364 85.3136095,104.136364 85.3136095,103.872727 C85.3136095,103.872727 90.0532544,122.590909 97.6893491,128.127273 C106.115385,134.454545 113.751479,124.7 115.857988,120.481818 L154.301775,37.9636364 L158.251479,59.0545455" id="Shape" fill="#C0C0C0"></path>
                    <path d="M150.352071,20.8272727 L116.384615,94.1181818 C116.384615,94.1181818 105.06213,119.427273 90.5798817,107.563636 C87.9467456,105.454545 84.5236686,99.9181818 82.4171598,91.7454545 C80.3106509,83.3090909 77.4142012,65.9090909 77.4142012,65.6454545 C77.4142012,65.6454545 82.1538462,84.3636364 89.7899408,89.9 C98.2159763,96.2272727 105.852071,86.4727273 107.95858,82.2545455 L146.139053,0 L150.352071,20.8272727" id="Shape" fill="#C0C0C0"></path>
                </g>
                <g id="Group" transform="translate(203.751479, 41.545455)">
                    <g transform="translate(62.195266, -0.000000)" fill-rule="nonzero" fill="#9B9B9B">
                        <path d="M4.47633136,3.27272727 L12.9023669,3.27272727 C24.7514793,3.27272727 30.0177515,8.01818182 30.0177515,19.6181818 C30.0177515,31.2181818 24.7514793,35.9636364 12.9023669,35.9636364 L4.47633136,35.9636364 L4.47633136,3.27272727 L4.47633136,3.27272727 Z M0.526627219,39.3909091 L14.7455621,39.3909091 C27.1213018,39.1272727 33.704142,32.5363636 33.704142,19.8818182 C33.704142,6.96363636 27.1213018,0.636363636 14.7455621,0.372727273 L0.526627219,0.372727273 L0.526627219,39.3909091 Z" id="Shape"></path>
                        <path d="M40.8136095,23.3090909 C41.3402367,18.0363636 44.7633136,13.2909091 50.556213,13.2909091 C56.3491124,13.2909091 60.035503,18.0363636 60.035503,23.3090909 L40.8136095,23.3090909 L40.8136095,23.3090909 Z M63.7218935,26.2090909 C63.9852071,18.3 60.2988166,10.3909091 50.556213,10.3909091 C41.0769231,10.3909091 37.1272189,17.7727273 37.1272189,25.4181818 C37.1272189,33.5909091 41.0769231,40.4454545 50.556213,40.4454545 C58.1923077,40.4454545 62.1420118,36.7545455 63.7218935,30.4272727 L60.035503,30.4272727 C58.9822485,34.6454545 56.0857988,37.5454545 50.556213,37.5454545 C43.4467456,37.5454545 40.8136095,31.4818182 40.8136095,26.4727273 L63.7218935,26.4727273 L63.7218935,26.2090909 Z" id="Shape"></path>
                        <path d="M91.8964497,39.3909091 L88.4733728,39.3909091 L88.4733728,34.3818182 L88.4733728,34.3818182 C86.6301775,38.0727273 82.6804734,40.1818182 78.204142,40.1818182 C70.5680473,40.1818182 67.6715976,35.9636364 67.6715976,29.3727273 L67.6715976,10.9181818 L71.3579882,10.9181818 L71.3579882,29.3727273 C71.6213018,34.3818182 73.464497,37.0181818 79.2573964,37.0181818 C85.5769231,37.0181818 88.2100592,31.4818182 88.2100592,25.6818182 L88.2100592,10.9181818 L91.8964497,10.9181818 L91.8964497,39.3909091" id="Shape"></path>
                        <path d="M103.482249,10.9181818 L109.538462,10.9181818 L109.538462,13.8181818 L103.482249,13.8181818 L103.482249,32.8 C103.482249,35.1727273 103.745562,36.2272727 106.378698,36.4909091 C107.431953,36.4909091 108.485207,36.4909091 109.538462,36.2272727 L109.538462,39.1272727 C108.485207,39.1272727 107.431953,39.1272727 106.378698,39.1272727 C101.37574,39.1272727 99.795858,37.5454545 99.795858,32.8 L99.795858,13.8181818 L94.5295858,13.8181818 L94.5295858,10.9181818 L99.795858,10.9181818 L99.795858,2.48181818 L103.482249,2.48181818 L103.482249,10.9181818" id="Shape"></path>
                        <path d="M131.393491,19.3545455 C131.130178,15.1363636 127.707101,13.2909091 123.494083,13.2909091 C120.33432,13.2909091 116.384615,14.6090909 116.384615,18.0363636 C116.384615,21.2 120.071006,22.2545455 122.704142,22.7818182 L127.707101,23.8363636 C131.920118,24.3636364 136.133136,26.7363636 136.133136,31.7454545 C136.133136,37.8090909 129.813609,40.1818182 124.02071,40.1818182 C117.174556,40.1818182 112.171598,37.0181818 111.64497,30.1636364 L115.331361,30.1636364 C115.594675,34.9090909 119.281065,37.2818182 124.284024,37.2818182 C127.707101,37.2818182 132.446746,35.9636364 132.446746,32.0090909 C132.446746,28.8454545 129.286982,27.5272727 125.863905,26.7363636 L121.12426,25.6818182 C116.384615,24.3636364 112.698225,23.0454545 112.698225,18.0363636 C112.698225,12.2363636 118.754438,10.1272727 124.02071,10.1272727 C130.076923,10.1272727 134.816568,13.0272727 135.079882,19.0909091 L131.393491,19.0909091" id="Shape"></path>
                        <path d="M161.411243,19.8818182 C160.357988,15.6636364 157.724852,13.0272727 152.985207,13.0272727 C145.87574,13.0272727 142.452663,19.0909091 142.452663,25.1545455 C142.452663,31.2181818 145.87574,37.2818182 152.985207,37.2818182 C157.461538,37.2818182 161.147929,33.8545455 161.674556,29.1090909 L165.360947,29.1090909 C164.307692,35.9636364 159.568047,40.1818182 152.985207,40.1818182 C143.769231,40.1818182 138.766272,33.3272727 138.766272,25.1545455 C138.766272,16.9818182 143.769231,10.1272727 152.985207,10.1272727 C159.304734,10.1272727 164.307692,13.2909091 165.097633,19.8818182 L161.411243,19.8818182" id="Shape"></path>
                        <path d="M169.310651,0.109090909 L172.997041,0.109090909 L172.997041,15.9272727 L172.997041,15.9272727 C174.313609,12.5 178.263314,10.1272727 182.476331,10.1272727 C190.902367,10.1272727 193.535503,14.3454545 193.535503,20.9363636 L193.535503,39.1272727 L189.849112,39.1272727 L189.849112,21.7272727 C189.849112,16.9818182 188.269231,13.2909091 182.213018,13.2909091 C176.420118,13.2909091 172.997041,17.5090909 172.733728,23.0454545 L172.733728,39.3909091 L169.047337,39.3909091 L169.047337,0.109090909" id="Shape"></path>
                        <path d="M201.434911,23.3090909 C201.961538,18.0363636 205.384615,13.2909091 211.177515,13.2909091 C216.970414,13.2909091 220.656805,18.0363636 220.656805,23.3090909 L201.434911,23.3090909 L201.434911,23.3090909 Z M224.606509,26.2090909 C224.869822,18.3 221.183432,10.3909091 211.440828,10.3909091 C201.961538,10.3909091 198.011834,17.7727273 198.011834,25.4181818 C198.011834,33.5909091 201.961538,40.4454545 211.440828,40.4454545 C219.076923,40.4454545 223.026627,36.7545455 224.606509,30.4272727 L220.920118,30.4272727 C219.866864,34.6454545 216.970414,37.5454545 211.440828,37.5454545 C204.331361,37.5454545 201.698225,31.4818182 201.698225,26.4727273 L224.606509,26.4727273 L224.606509,26.2090909 Z" id="Shape"></path>
                        <path d="M228.292899,10.9181818 L231.715976,10.9181818 L231.715976,17.5090909 L231.715976,17.5090909 C233.559172,13.0272727 237.508876,10.3909091 243.038462,10.3909091 L243.038462,13.8181818 C236.455621,13.5545455 231.97929,18.0363636 231.97929,23.8363636 L231.97929,38.8636364 L228.292899,38.8636364 L228.292899,10.9181818" id="Shape"></path>
                        <path d="M259.363905,9.86363636 L259.363905,9.86363636 L264.630178,24.1 L253.83432,24.1 L259.363905,9.86363636 L259.363905,9.86363636 Z M239.352071,39.3909091 L248.568047,39.3909091 L251.727811,30.6909091 L267.263314,30.6909091 L270.423077,39.3909091 L279.902367,39.3909091 L264.366864,0.372727273 L254.887574,0.372727273 L239.352071,39.3909091 Z" id="Shape"></path>
                        <path d="M280.692308,10.9181818 L288.591716,10.9181818 L288.591716,14.8727273 L288.85503,14.8727273 C290.961538,11.7090909 294.647929,10.1272727 298.071006,10.1272727 C306.760355,10.1272727 309.130178,14.8727273 309.130178,21.7272727 L309.130178,39.1272727 L300.967456,39.1272727 L300.967456,23.0454545 C300.967456,18.3 299.387574,16.1909091 295.701183,16.1909091 C291.224852,16.1909091 289.381657,18.5636364 289.381657,24.3636364 L289.381657,39.1272727 L281.218935,39.1272727 L281.218935,10.9181818" id="Shape"></path>
                        <polyline id="Shape" points="347.837278 39.3909091 339.411243 39.3909091 333.881657 20.4090909 333.881657 20.4090909 328.878698 39.3909091 320.189349 39.3909091 310.710059 10.9181818 319.399408 10.9181818 324.928994 30.1636364 325.192308 30.1636364 329.931953 10.9181818 338.094675 10.9181818 343.097633 30.1636364 343.360947 30.1636364 348.890533 10.9181818 357.316568 10.9181818 347.837278 39.3909091"></polyline>
                        <path d="M377.85503,28.3181818 C377.85503,29.9 377.591716,34.9090909 371.272189,34.9090909 C368.639053,34.9090909 366.269231,34.1181818 366.269231,31.2181818 C366.269231,28.3181818 368.639053,27.5272727 371.008876,27 C373.642012,26.4727273 376.538462,26.4727273 377.85503,25.4181818 L377.85503,28.3181818 L377.85503,28.3181818 Z M366.795858,19.6181818 C367.059172,16.4545455 369.16568,15.4 372.325444,15.4 C375.221893,15.4 377.591716,15.9272727 377.591716,19.3545455 C377.591716,22.5181818 372.852071,22.2545455 367.849112,23.0454545 C362.846154,23.5727273 357.579882,25.1545455 357.579882,31.7454545 C357.579882,37.5454545 362.056213,40.1818182 367.849112,40.1818182 C371.535503,40.1818182 375.221893,39.1272727 377.85503,36.7545455 C377.85503,37.8090909 378.118343,38.6 378.381657,39.3909091 L386.807692,39.3909091 C386.017751,38.3363636 385.754438,35.7 385.754438,33.0636364 L385.754438,18.3 C385.754438,11.4454545 378.64497,10.1272727 372.588757,10.1272727 C365.742604,10.1272727 358.89645,12.2363636 358.369822,19.6181818 L366.795858,19.6181818 L366.795858,19.6181818 Z" id="Shape"></path>
                        <rect id="Rectangle-path" x="390.757396" y="0.109090909" width="8.16272189" height="39.0181818"></rect>
                        <path d="M414.192308,10.9181818 L420.248521,10.9181818 L420.248521,16.1909091 L414.192308,16.1909091 L414.192308,30.1636364 C414.192308,32.8 414.982249,33.3272727 417.615385,33.3272727 C418.405325,33.3272727 419.195266,33.3272727 420.248521,33.0636364 L420.248521,39.1272727 C418.931953,39.3909091 417.088757,39.3909091 415.508876,39.3909091 C410.505917,39.3909091 406.029586,38.3363636 406.029586,32.5363636 L406.029586,15.9272727 L401.026627,15.9272727 L401.026627,10.6545455 L406.029586,10.6545455 L406.029586,2.21818182 L414.192308,2.21818182 L414.192308,10.9181818" id="Shape"></path>
                        <polyline id="Shape" points="418.931953 0.109090909 423.14497 0.109090909 436.837278 35.1727273 436.837278 35.1727273 450.266272 0.109090909 454.47929 0.109090909 438.943787 39.3909091 434.467456 39.3909091 418.931953 0.109090909"></polyline>
                        <path d="M455.005917,23.3090909 C455.532544,18.0363636 458.955621,13.2909091 464.748521,13.2909091 C470.54142,13.2909091 473.964497,18.0363636 474.227811,23.3090909 L455.005917,23.3090909 L455.005917,23.3090909 Z M478.177515,26.2090909 C478.440828,18.3 474.754438,10.3909091 465.011834,10.3909091 C455.532544,10.3909091 451.58284,17.7727273 451.58284,25.4181818 C451.58284,33.5909091 455.532544,40.4454545 465.011834,40.4454545 C472.647929,40.4454545 476.597633,36.7545455 478.177515,30.4272727 L474.491124,30.4272727 C473.43787,34.6454545 470.54142,37.5454545 465.011834,37.5454545 C457.902367,37.5454545 455.269231,31.4818182 455.269231,26.4727273 L478.177515,26.4727273 L478.177515,26.2090909 Z" id="Shape"></path>
                        <path d="M481.863905,10.9181818 L485.286982,10.9181818 L485.286982,17.5090909 L485.286982,17.5090909 C487.130178,13.0272727 491.079882,10.3909091 496.609467,10.3909091 L496.609467,13.8181818 C490.026627,13.5545455 485.550296,18.0363636 485.550296,23.8363636 L485.550296,38.8636364 L481.863905,38.8636364 L481.863905,10.9181818" id="Shape"></path>
                        <path d="M500.295858,23.3090909 C500.822485,18.0363636 504.245562,13.2909091 510.301775,13.2909091 C516.094675,13.2909091 519.517751,18.0363636 519.781065,23.3090909 L500.295858,23.3090909 L500.295858,23.3090909 Z M523.204142,26.2090909 C523.467456,18.3 519.781065,10.3909091 510.038462,10.3909091 C500.559172,10.3909091 496.609467,17.7727273 496.609467,25.4181818 C496.609467,33.5909091 500.559172,40.4454545 510.038462,40.4454545 C517.674556,40.4454545 521.62426,36.7545455 523.204142,30.4272727 L519.517751,30.4272727 C518.464497,34.6454545 515.568047,37.5454545 510.038462,37.5454545 C502.928994,37.5454545 500.295858,31.4818182 500.032544,26.4727273 L523.204142,26.4727273 L523.204142,26.2090909 Z" id="Shape"></path>
                        <path d="M527.153846,10.9181818 L530.840237,10.9181818 L530.840237,39.1272727 L527.153846,39.1272727 L527.153846,10.9181818 L527.153846,10.9181818 Z M527.153846,0.109090909 L530.840237,0.109090909 L530.840237,5.64545455 L527.153846,5.64545455 L527.153846,0.109090909 Z" id="Shape"></path>
                        <path d="M536.633136,10.9181818 L540.319527,10.9181818 L540.319527,15.6636364 L540.319527,15.6636364 C541.636095,12.2363636 545.585799,9.86363636 549.798817,9.86363636 C558.224852,9.86363636 560.857988,14.0818182 560.857988,20.6727273 L560.857988,38.8636364 L557.171598,38.8636364 L557.171598,21.7272727 C557.171598,16.9818182 555.591716,13.2909091 549.535503,13.2909091 C543.742604,13.2909091 540.319527,17.5090909 540.056213,23.0454545 L540.056213,39.3909091 L536.369822,39.3909091 L536.369822,10.9181818" id="Shape"></path>
                    </g>
                    <path d="M0.0532544379,66.8090909 L685.985207,66.8090909" id="Shape" stroke="#B61F29"></path>
                    <g transform="translate(104.325444, 88.636364)" id="Shape" fill-rule="nonzero" fill="#000000">
                        <path d="M0,40.1272727 L15.7988166,0.581818182 L20.0118343,0.581818182 L35.5473373,40.1272727 L31.5976331,40.1272727 L26.8579882,27.7363636 L8.95266272,27.7363636 L4.21301775,40.1272727 L0,40.1272727 Z M17.9053254,4.53636364 L10.0059172,24.8363636 L25.5414201,24.8363636 L17.9053254,4.53636364 Z"></path>
                        <path d="M38.1804734,40.1272727 L38.1804734,11.6545455 L41.3402367,11.6545455 L41.3402367,18.2454545 L41.3402367,18.2454545 C42.1301775,15.8727273 43.7100592,14.0272727 45.5532544,12.9727273 C47.3964497,11.6545455 49.7662722,11.1272727 52.1360947,11.1272727 L52.1360947,14.8181818 C48.9763314,14.5545455 46.6065089,15.6090909 44.5,17.4545455 C42.3934911,19.3 41.6035503,21.9363636 41.6035503,24.8363636 L41.6035503,40.1272727 L38.1804734,40.1272727 Z"></path>
                        <path d="M55.0325444,40.1272727 L55.0325444,0.581818182 L58.4556213,0.581818182 L58.4556213,16.9272727 L58.4556213,16.9272727 C59.2455621,14.8181818 60.5621302,13.5 62.4053254,12.1818182 C64.2485207,11.1272727 66.091716,10.6 68.4615385,10.6 C72.6745562,10.6 75.8343195,12.1818182 78.204142,15.0818182 C80.3106509,17.7181818 81.3639053,21.4090909 81.3639053,25.6272727 C81.3639053,29.8454545 80.3106509,33.5363636 78.204142,36.1727273 C75.8343195,39.0727273 72.6745562,40.6545455 68.4615385,40.6545455 C66.091716,40.6545455 63.9852071,40.1272727 62.1420118,39.0727273 C60.2988166,38.0181818 58.9822485,36.4363636 58.1923077,34.5909091 L58.1923077,34.5909091 L58.1923077,40.1272727 L55.0325444,40.1272727 Z M77.6775148,25.8909091 C77.6775148,22.4636364 76.887574,19.8272727 75.5710059,17.4545455 C73.9911243,14.8181818 71.3579882,13.5 68.4615385,13.5 C65.0384615,13.5 62.4053254,14.8181818 60.5621302,17.4545455 C58.9822485,19.5636364 58.4556213,22.4636364 58.4556213,25.8909091 C58.4556213,29.3181818 59.2455621,31.9545455 60.5621302,34.3272727 C62.4053254,36.9636364 65.0384615,38.2818182 68.4615385,38.2818182 C71.6213018,38.2818182 73.9911243,36.9636364 75.5710059,34.3272727 C77.1508876,31.9545455 77.6775148,29.3181818 77.6775148,25.8909091 Z"></path>
                        <path d="M110.065089,26.9454545 L88.2100592,26.9454545 C88.2100592,29.8454545 89,32.4818182 90.316568,34.5909091 C92.1597633,36.9636364 94.5295858,38.2818182 97.4260355,38.2818182 C102.16568,38.2818182 105.06213,35.9090909 106.378698,30.9 L109.801775,30.9 C108.221893,37.7545455 104.008876,41.1818182 97.4260355,41.1818182 C93.2130178,41.1818182 89.7899408,39.6 87.683432,36.7 C85.5769231,34.0636364 84.5236686,30.3727273 84.5236686,26.1545455 C84.5236686,21.9363636 85.5769231,18.5090909 87.683432,15.8727273 C90.0532544,12.7090909 93.2130178,11.1272727 97.4260355,11.1272727 C101.639053,11.1272727 105.06213,12.7090909 107.168639,16.1363636 C109.275148,18.7727273 110.328402,22.4636364 110.065089,26.9454545 Z M88.2100592,24.0454545 L106.642012,24.0454545 C106.642012,21.1454545 105.852071,18.7727273 104.272189,16.9272727 C102.692308,14.8181818 100.322485,13.7636364 97.6893491,13.7636364 C95.056213,13.7636364 92.6863905,14.8181818 91.1065089,16.9272727 C89.2633136,18.7727273 88.4733728,21.1454545 88.2100592,24.0454545 Z"></path>
                        <path d="M114.278107,6.38181818 L114.278107,0.845454545 L117.701183,0.845454545 L117.701183,6.38181818 L114.278107,6.38181818 Z M114.278107,40.1272727 L114.278107,11.6545455 L117.701183,11.6545455 L117.701183,40.1272727 L114.278107,40.1272727 Z"></path>
                        <path d="M129.550296,3.21818182 L129.550296,11.9181818 L135.343195,11.9181818 L135.343195,14.8181818 L129.550296,14.8181818 L129.550296,34.0636364 C129.550296,35.3818182 129.813609,36.1727273 130.076923,36.7 C130.60355,37.4909091 131.393491,37.7545455 132.446746,37.7545455 C133.236686,37.7545455 134.026627,37.7545455 135.343195,37.4909091 L135.343195,40.3909091 C135.079882,40.3909091 134.553254,40.3909091 133.763314,40.3909091 C132.973373,40.3909091 132.446746,40.3909091 132.183432,40.3909091 C129.813609,40.3909091 128.233728,39.8636364 127.443787,39.0727273 C126.653846,38.2818182 126.127219,36.4363636 126.127219,34.0636364 L126.127219,14.5545455 L121.12426,14.5545455 L121.12426,11.6545455 L126.127219,11.6545455 L126.127219,2.95454545 L129.550296,2.95454545 L129.550296,3.21818182 Z"></path>
                        <path d="M160.357988,20.0909091 L156.934911,20.0909091 C156.934911,17.9818182 156.14497,16.4 154.565089,15.3454545 C153.248521,14.2909091 151.405325,13.7636364 149.298817,13.7636364 C147.455621,13.7636364 145.87574,14.0272727 144.822485,14.8181818 C143.242604,15.6090909 142.715976,16.9272727 142.715976,18.7727273 C142.715976,21.1454545 144.559172,22.7272727 148.508876,23.5181818 L153.248521,24.5727273 C158.778107,25.8909091 161.411243,28.5272727 161.411243,32.4818182 C161.411243,35.3818182 160.094675,37.4909091 157.724852,39.0727273 C155.618343,40.3909091 152.985207,41.1818182 150.088757,41.1818182 C142.715976,41.1818182 138.766272,37.7545455 138.239645,31.1636364 L141.662722,31.1636364 C141.926036,33.5363636 142.715976,35.1181818 144.295858,36.4363636 C145.87574,37.7545455 147.718935,38.2818182 150.088757,38.2818182 C151.931953,38.2818182 153.775148,37.7545455 155.35503,36.9636364 C157.198225,35.9090909 157.988166,34.5909091 157.988166,32.7454545 C157.988166,30.1090909 155.881657,28.5272727 151.668639,27.4727273 L147.192308,26.4181818 C144.559172,25.8909091 142.715976,25.1 141.399408,24.0454545 C139.819527,22.7272727 139.029586,21.1454545 139.029586,18.7727273 C139.029586,16.1363636 140.08284,14.0272727 142.452663,12.4454545 C144.295858,11.1272727 146.928994,10.6 149.825444,10.6 C152.721893,10.6 155.35503,11.3909091 157.198225,12.9727273 C159.304734,14.8181818 160.094675,16.9272727 160.357988,20.0909091 Z"></path>
                        <path d="M189.849112,11.6545455 L189.849112,38.0181818 C189.849112,47.2454545 185.636095,51.7272727 177.210059,51.7272727 C174.050296,51.7272727 171.41716,50.9363636 169.310651,49.6181818 C166.940828,48.0363636 165.62426,45.9272727 165.360947,43.0272727 L168.784024,43.0272727 C169.573964,46.7181818 172.207101,48.8272727 177.210059,48.8272727 C183.266272,48.8272727 186.426036,45.1363636 186.426036,38.0181818 L186.426036,34.0636364 L186.426036,34.0636364 C185.636095,35.9090909 184.319527,37.2272727 182.739645,38.2818182 C181.159763,39.3363636 179.316568,39.8636364 177.210059,39.8636364 C172.733728,39.8636364 169.573964,38.5454545 167.467456,35.6454545 C165.360947,33.0090909 164.307692,29.5818182 164.307692,25.3636364 C164.307692,21.1454545 165.360947,17.9818182 167.730769,15.3454545 C170.100592,12.4454545 173.260355,11.1272727 177.210059,11.1272727 C179.316568,11.1272727 181.159763,11.6545455 182.739645,12.7090909 C184.319527,13.7636364 185.636095,15.0818182 186.162722,16.9272727 L186.162722,16.9272727 L186.162722,11.9181818 L189.849112,11.9181818 L189.849112,11.6545455 Z M177.210059,36.9636364 C180.106509,36.9636364 182.476331,35.9090909 184.056213,33.5363636 C185.636095,31.4272727 186.426036,28.7909091 186.426036,25.6272727 C186.426036,22.4636364 185.636095,19.8272727 184.319527,17.7181818 C182.739645,15.0818182 180.369822,14.0272727 177.210059,14.0272727 C174.050296,14.0272727 171.680473,15.3454545 170.100592,17.7181818 C168.52071,19.8272727 167.994083,22.4636364 167.994083,25.8909091 C167.994083,29.0545455 168.784024,31.6909091 170.363905,33.8 C171.943787,35.9090909 174.313609,36.9636364 177.210059,36.9636364 Z"></path>
                        <path d="M220.130178,26.9454545 L198.275148,26.9454545 C198.275148,29.8454545 199.065089,32.4818182 200.381657,34.5909091 C202.224852,36.9636364 204.594675,38.2818182 207.491124,38.2818182 C212.230769,38.2818182 215.127219,35.9090909 216.443787,30.9 L219.866864,30.9 C218.286982,37.7545455 214.073964,41.1818182 207.491124,41.1818182 C203.278107,41.1818182 199.85503,39.6 197.748521,36.7 C195.642012,34.0636364 194.588757,30.3727273 194.588757,26.1545455 C194.588757,21.9363636 195.642012,18.5090909 197.748521,15.8727273 C200.118343,12.7090909 203.278107,11.1272727 207.491124,11.1272727 C211.704142,11.1272727 215.127219,12.7090909 217.233728,16.1363636 C219.340237,18.7727273 220.130178,22.4636364 220.130178,26.9454545 Z M198.011834,24.0454545 L216.443787,24.0454545 C216.443787,21.1454545 215.653846,18.7727273 214.073964,16.9272727 C212.494083,14.8181818 210.12426,13.7636364 207.491124,13.7636364 C204.857988,13.7636364 202.488166,14.8181818 200.908284,16.9272727 C199.328402,18.7727273 198.275148,21.1454545 198.011834,24.0454545 Z"></path>
                        <path d="M224.079882,40.1272727 L224.079882,11.6545455 L227.239645,11.6545455 L227.239645,16.4 L227.502959,16.4 C229.609467,12.7090909 232.505917,10.8636364 236.718935,10.8636364 C238.56213,10.8636364 240.405325,11.3909091 241.985207,12.1818182 C243.565089,13.2363636 244.35503,14.5545455 244.881657,16.4 C246.461538,12.7090909 249.621302,10.8636364 253.83432,10.8636364 C260.153846,10.8636364 263.313609,14.2909091 263.313609,20.8818182 L263.313609,40.1272727 L259.890533,40.1272727 L259.890533,20.8818182 C259.890533,16.1363636 257.52071,13.5 253.044379,13.5 C247.778107,13.5 245.408284,16.9272727 245.408284,23.7818182 L245.408284,39.8636364 L242.248521,39.8636364 L242.248521,20.6181818 C242.248521,15.8727273 240.142012,13.5 236.192308,13.5 C233.295858,13.5 231.189349,14.5545455 229.609467,16.4 C228.292899,18.2454545 227.502959,20.8818182 227.502959,24.0454545 L227.502959,39.8636364 L224.079882,39.8636364 L224.079882,40.1272727 Z"></path>
                        <path d="M293.594675,26.9454545 L271.739645,26.9454545 C271.739645,29.8454545 272.529586,32.4818182 273.846154,34.5909091 C275.689349,36.9636364 278.059172,38.2818182 280.955621,38.2818182 C285.695266,38.2818182 288.591716,35.9090909 289.908284,30.9 L293.331361,30.9 C291.751479,37.7545455 287.538462,41.1818182 280.955621,41.1818182 C276.742604,41.1818182 273.319527,39.6 271.213018,36.7 C269.106509,34.0636364 268.053254,30.3727273 268.053254,26.1545455 C268.053254,21.9363636 269.106509,18.5090909 271.213018,15.8727273 C273.58284,12.7090909 276.742604,11.1272727 280.955621,11.1272727 C285.168639,11.1272727 288.591716,12.7090909 290.698225,16.1363636 C292.804734,18.7727273 293.857988,22.4636364 293.594675,26.9454545 Z M271.739645,24.0454545 L290.171598,24.0454545 C290.171598,21.1454545 289.381657,18.7727273 287.801775,16.9272727 C286.221893,14.8181818 283.852071,13.7636364 281.218935,13.7636364 C278.585799,13.7636364 276.215976,14.8181818 274.636095,16.9272727 C272.792899,18.7727273 272.002959,21.1454545 271.739645,24.0454545 Z"></path>
                        <path d="M297.807692,6.38181818 L297.807692,0.845454545 L301.230769,0.845454545 L301.230769,6.38181818 L297.807692,6.38181818 Z M297.807692,40.1272727 L297.807692,11.6545455 L301.230769,11.6545455 L301.230769,40.1272727 L297.807692,40.1272727 Z"></path>
                        <path d="M307.550296,40.1272727 L307.550296,11.6545455 L310.973373,11.6545455 L310.973373,16.6636364 L310.973373,16.6636364 C311.5,15.0818182 312.816568,13.5 314.39645,12.4454545 C316.239645,11.3909091 318.08284,10.8636364 319.926036,10.8636364 C323.87574,10.8636364 326.508876,11.9181818 328.088757,13.7636364 C329.668639,15.6090909 330.195266,18.2454545 330.195266,21.9363636 L330.195266,40.3909091 L326.772189,40.3909091 L326.772189,22.4636364 C326.772189,16.6636364 324.402367,13.7636364 319.399408,13.7636364 C316.766272,13.7636364 314.39645,14.8181818 312.816568,16.4 C311.236686,18.2454545 310.446746,20.6181818 310.446746,23.5181818 L310.446746,40.1272727 L307.550296,40.1272727 Z"></path>
                        <path d="M357.316568,20.0909091 L353.893491,20.0909091 C353.893491,17.9818182 353.10355,16.4 351.523669,15.3454545 C350.207101,14.2909091 348.363905,13.7636364 346.257396,13.7636364 C344.414201,13.7636364 342.83432,14.0272727 341.781065,14.8181818 C340.201183,15.6090909 339.674556,16.9272727 339.674556,18.7727273 C339.674556,21.1454545 341.517751,22.7272727 345.467456,23.5181818 L350.207101,24.5727273 C355.736686,25.8909091 358.369822,28.5272727 358.369822,32.4818182 C358.369822,35.3818182 357.053254,37.4909091 354.683432,39.0727273 C352.576923,40.3909091 349.943787,41.1818182 347.047337,41.1818182 C339.674556,41.1818182 335.724852,37.7545455 335.198225,31.1636364 L338.621302,31.1636364 C338.884615,33.5363636 339.674556,35.1181818 341.254438,36.4363636 C342.83432,37.7545455 344.677515,38.2818182 347.047337,38.2818182 C348.890533,38.2818182 350.733728,37.7545455 352.313609,36.9636364 C354.156805,35.9090909 354.946746,34.5909091 354.946746,32.7454545 C354.946746,30.1090909 352.840237,28.5272727 348.627219,27.4727273 L344.150888,26.4181818 C341.517751,25.8909091 339.674556,25.1 338.357988,24.0454545 C336.778107,22.7272727 335.988166,21.1454545 335.988166,18.7727273 C335.988166,16.1363636 337.04142,14.0272727 339.411243,12.4454545 C341.254438,11.1272727 343.887574,10.6 346.784024,10.6 C349.680473,10.6 352.313609,11.3909091 354.156805,12.9727273 C356,14.8181818 357.053254,16.9272727 357.316568,20.0909091 Z"></path>
                        <path d="M386.281065,20.6181818 L382.857988,20.6181818 C381.804734,16.1363636 379.171598,13.7636364 374.695266,13.7636364 C371.535503,13.7636364 368.902367,15.0818182 367.059172,17.4545455 C365.47929,19.8272727 364.689349,22.4636364 364.689349,25.8909091 C364.689349,29.3181818 365.47929,31.9545455 367.059172,34.3272727 C368.902367,36.9636364 371.535503,38.0181818 374.695266,38.0181818 C376.801775,38.0181818 378.64497,37.2272727 380.224852,35.6454545 C381.804734,34.0636364 382.594675,32.2181818 382.857988,29.8454545 L386.281065,29.8454545 C385.754438,33.2727273 384.43787,35.9090909 382.331361,38.0181818 C380.224852,39.8636364 377.591716,40.9181818 374.431953,40.9181818 C370.218935,40.9181818 366.795858,39.3363636 364.426036,36.4363636 C362.056213,33.5363636 361.002959,30.1090909 361.002959,25.8909091 C361.002959,21.6727273 362.056213,17.9818182 364.426036,15.3454545 C366.795858,12.4454545 370.218935,10.8636364 374.431953,10.8636364 C377.591716,10.8636364 380.224852,11.6545455 382.331361,13.2363636 C384.701183,15.0818182 386.017751,17.4545455 386.281065,20.6181818 Z"></path>
                        <path d="M390.757396,40.1272727 L390.757396,0.581818182 L394.180473,0.581818182 L394.180473,16.4 L394.180473,16.4 C394.707101,14.8181818 396.023669,13.2363636 397.60355,12.1818182 C399.446746,11.1272727 401.289941,10.6 403.133136,10.6 C407.08284,10.6 409.715976,11.6545455 411.295858,13.5 C412.87574,15.3454545 413.402367,17.9818182 413.402367,21.6727273 L413.402367,40.1272727 L409.97929,40.1272727 L409.97929,22.2 C409.97929,16.4 407.609467,13.5 402.606509,13.5 C399.973373,13.5 397.60355,14.5545455 396.023669,16.1363636 C394.443787,17.9818182 393.653846,20.3545455 393.653846,23.2545455 L393.653846,39.8636364 L390.757396,39.8636364 L390.757396,40.1272727 Z"></path>
                        <path d="M423.14497,20.3545455 L419.721893,20.3545455 C419.985207,17.1909091 421.038462,14.8181818 423.14497,12.9727273 C424.988166,11.3909091 427.884615,10.6 431.307692,10.6 C438.41716,10.6 441.840237,13.7636364 441.840237,19.8272727 L441.840237,35.1181818 C441.840237,36.4363636 442.630178,37.2272727 443.946746,37.2272727 C444.210059,37.2272727 444.736686,37.2272727 445,36.9636364 L445,39.8636364 C444.210059,40.1272727 443.420118,40.1272727 442.630178,40.1272727 C441.050296,40.1272727 439.733728,39.6 439.207101,38.8090909 C438.680473,38.0181818 438.41716,36.9636364 438.41716,35.1181818 L438.41716,35.1181818 C437.100592,37.2272727 435.784024,38.5454545 434.467456,39.3363636 C432.887574,40.3909091 430.781065,40.9181818 428.147929,40.9181818 C425.251479,40.9181818 423.14497,40.1272727 421.301775,38.8090909 C419.45858,37.2272727 418.405325,35.1181818 418.405325,32.4818182 C418.405325,29.0545455 419.985207,26.4181818 423.14497,25.1 C424.724852,24.3090909 428.147929,23.7818182 433.677515,23.2545455 C435.257396,22.9909091 436.310651,22.7272727 437.100592,22.4636364 C437.890533,21.9363636 438.153846,20.8818182 438.153846,19.5636364 C438.153846,15.6090909 435.784024,13.7636364 430.781065,13.7636364 C425.778107,13.7636364 423.14497,15.8727273 423.14497,20.3545455 Z M438.153846,29.0545455 L438.153846,24.5727273 L438.153846,24.5727273 C437.890533,25.1 436.837278,25.6272727 435.257396,25.8909091 C433.150888,26.1545455 431.307692,26.4181818 429.201183,26.9454545 C426.831361,27.4727273 425.251479,28 424.198225,28.5272727 C422.881657,29.5818182 422.091716,30.9 422.091716,32.4818182 C422.091716,34.0636364 422.618343,35.3818182 423.934911,36.4363636 C425.251479,37.4909091 426.568047,38.0181818 428.411243,38.0181818 C431.044379,38.0181818 433.414201,37.2272727 435.52071,35.6454545 C437.100592,34.0636364 438.153846,31.9545455 438.153846,29.0545455 Z"></path>
                        <path d="M459.218935,11.6545455 L459.218935,14.5545455 L453.689349,14.5545455 L453.689349,40.1272727 L450.266272,40.1272727 L450.266272,14.5545455 L445,14.5545455 L445,11.6545455 L449.739645,11.6545455 L449.739645,9.01818182 C449.739645,6.38181818 450.266272,4.27272727 451.056213,2.95454545 C452.109467,1.37272727 453.952663,0.581818182 456.585799,0.581818182 C457.639053,0.581818182 458.428994,0.581818182 459.482249,0.845454545 L459.482249,3.74545455 C458.428994,3.48181818 457.639053,3.48181818 456.849112,3.48181818 C455.005917,3.48181818 453.952663,4.00909091 453.426036,5.06363636 C453.162722,5.59090909 452.899408,6.90909091 452.899408,9.01818182 L452.899408,11.3909091 L459.218935,11.3909091 L459.218935,11.6545455 Z"></path>
                        <path d="M467.381657,3.21818182 L467.381657,11.9181818 L473.174556,11.9181818 L473.174556,14.8181818 L467.381657,14.8181818 L467.381657,34.0636364 C467.381657,35.3818182 467.64497,36.1727273 467.908284,36.7 C468.434911,37.4909091 469.224852,37.7545455 470.278107,37.7545455 C471.068047,37.7545455 471.857988,37.7545455 473.174556,37.4909091 L473.174556,40.3909091 C472.911243,40.3909091 472.384615,40.3909091 471.594675,40.3909091 C470.804734,40.3909091 470.278107,40.3909091 470.014793,40.3909091 C467.64497,40.3909091 466.065089,39.8636364 465.275148,39.0727273 C464.485207,38.2818182 463.95858,36.4363636 463.95858,34.0636364 L463.95858,14.5545455 L458.955621,14.5545455 L458.955621,11.6545455 L463.95858,11.6545455 L463.95858,2.95454545 L467.381657,2.95454545 L467.381657,3.21818182 Z"></path>
                    </g>
                </g>
                <path d="M427.635784,216.242455 L419.230814,216.242455 C419.19395,218.678467 419.636312,220.782264 420.557914,222.553909 C421.479516,224.325554 422.723661,225.783449 424.290385,226.927636 C425.857108,228.071824 427.663422,228.911497 429.709379,229.446682 C431.755336,229.981866 433.865773,230.249455 436.040754,230.249455 C438.731833,230.249455 441.100315,229.93573 443.146272,229.308273 C445.192229,228.680815 446.906384,227.804233 448.288787,226.6785 C449.67119,225.552767 450.712585,224.214826 451.413003,222.664636 C452.113421,221.114447 452.463624,219.4351 452.463624,217.626545 C452.463624,215.411989 451.993614,213.594234 451.05358,212.173227 C450.113546,210.75222 448.998424,209.617277 447.70818,208.768364 C446.417937,207.91945 445.118498,207.301229 443.809822,206.913682 C442.501147,206.526134 441.478184,206.258546 440.740902,206.110909 C438.271008,205.483451 436.271162,204.966729 434.741302,204.560727 C433.211442,204.154725 432.013377,203.748729 431.147071,203.342727 C430.280765,202.936725 429.700164,202.493821 429.405251,202.014 C429.110339,201.534179 428.962885,200.906731 428.962885,200.131636 C428.962885,199.282723 429.147202,198.581457 429.515843,198.027818 C429.884484,197.474179 430.354494,197.01282 430.925888,196.643727 C431.497281,196.274635 432.133177,196.016273 432.833595,195.868636 C433.534012,195.720999 434.23442,195.647182 434.934837,195.647182 C436.003896,195.647182 436.989995,195.739454 437.893166,195.924 C438.796336,196.108546 439.598118,196.422271 440.298536,196.865182 C440.998953,197.308093 441.561122,197.917087 441.985059,198.692182 C442.408996,199.467277 442.657825,200.445358 442.731553,201.626455 L451.136524,201.626455 C451.136524,199.338079 450.703377,197.391144 449.837071,195.785591 C448.970765,194.180037 447.800348,192.860551 446.325784,191.827091 C444.85122,190.793631 443.164714,190.04623 441.266213,189.584864 C439.367712,189.123498 437.386297,188.892818 435.321908,188.892818 C433.552432,188.892818 431.782982,189.132725 430.013506,189.612545 C428.24403,190.092366 426.658898,190.83054 425.258062,191.827091 C423.857227,192.823641 422.723673,194.069311 421.857367,195.564136 C420.991061,197.058962 420.557914,198.821353 420.557914,200.851364 C420.557914,202.659918 420.898902,204.200857 421.580888,205.474227 C422.262873,206.747597 423.156814,207.808723 424.262737,208.657636 C425.368659,209.50655 426.62202,210.198588 428.022855,210.733773 C429.42369,211.268957 430.861368,211.721089 432.335932,212.090182 C433.773631,212.496184 435.192878,212.865271 436.593713,213.197455 C437.994548,213.529638 439.247909,213.91718 440.353831,214.360091 C441.459754,214.803002 442.353695,215.356633 443.03568,216.021 C443.717666,216.685367 444.058654,217.552722 444.058654,218.623091 C444.058654,219.619641 443.800609,220.44086 443.284512,221.086773 C442.768415,221.732685 442.123303,222.24018 441.349157,222.609273 C440.575011,222.978365 439.745581,223.227499 438.860843,223.356682 C437.976105,223.485864 437.146675,223.550455 436.37253,223.550455 C435.229743,223.550455 434.123837,223.412047 433.054778,223.135227 C431.98572,222.858408 431.054915,222.433957 430.262337,221.861864 C429.469759,221.28977 428.833863,220.542368 428.35463,219.619636 C427.875397,218.696904 427.635784,217.571188 427.635784,216.242455 Z M466.361317,200.740636 L466.361317,192.159273 L458.509305,192.159273 L458.509305,200.740636 L453.753861,200.740636 L453.753861,206.000182 L458.509305,206.000182 L458.509305,222.886091 C458.509305,224.325553 458.748918,225.488177 459.228151,226.374 C459.707384,227.259823 460.361712,227.942634 461.191154,228.422455 C462.020596,228.902275 462.979048,229.225226 464.066538,229.391318 C465.154029,229.55741 466.306015,229.640455 467.52253,229.640455 C468.296675,229.640455 469.089242,229.622 469.900251,229.585091 C470.711261,229.548182 471.448532,229.474364 472.112086,229.363636 L472.112086,223.273636 C471.743445,223.347455 471.356378,223.402818 470.950873,223.439727 C470.545368,223.476637 470.121437,223.495091 469.679068,223.495091 C468.351961,223.495091 467.467236,223.273639 467.024867,222.830727 C466.582498,222.387816 466.361317,221.502007 466.361317,220.173273 L466.361317,206.000182 L472.112086,206.000182 L472.112086,200.740636 L466.361317,200.740636 Z M475.503565,200.740636 L475.503565,229.363636 L483.355577,229.363636 L483.355577,216.463909 C483.355577,215.172084 483.484599,213.972551 483.742648,212.865273 C484.000697,211.757994 484.433843,210.789141 485.042101,209.958682 C485.650358,209.128223 486.45214,208.473093 487.44747,207.993273 C488.442801,207.513452 489.659298,207.273545 491.096997,207.273545 C491.57623,207.273545 492.073888,207.301227 492.589985,207.356591 C493.106082,207.411955 493.548445,207.476545 493.917086,207.550364 L493.917086,200.242364 C493.290396,200.057817 492.719011,199.965545 492.202914,199.965545 C491.207584,199.965545 490.249132,200.11318 489.32753,200.408455 C488.405927,200.703729 487.539634,201.118952 486.728624,201.654136 C485.917614,202.189321 485.198775,202.835223 484.572086,203.591864 C483.945396,204.348504 483.447739,205.169723 483.079098,206.055545 L482.968506,206.055545 L482.968506,200.740636 L475.503565,200.740636 Z M496.31324,209.543455 C496.423832,207.697991 496.884626,206.166279 497.695636,204.948273 C498.506646,203.730267 499.538825,202.752186 500.792204,202.014 C502.045583,201.275814 503.455613,200.749865 505.022337,200.436136 C506.589061,200.122408 508.164977,199.965545 509.750133,199.965545 C511.187833,199.965545 512.643942,200.067044 514.118506,200.270045 C515.59307,200.473046 516.938589,200.869815 518.155104,201.460364 C519.371619,202.050912 520.366934,202.872131 521.14108,203.924045 C521.915226,204.97596 522.302293,206.369264 522.302293,208.104 L522.302293,222.996818 C522.302293,224.288643 522.37602,225.525085 522.523476,226.706182 C522.670933,227.887279 522.928977,228.773088 523.297618,229.363636 L515.335015,229.363636 C515.187558,228.920725 515.067752,228.468593 514.975592,228.007227 C514.883431,227.545861 514.81892,227.075275 514.782056,226.595455 C513.528677,227.887279 512.054136,228.791543 510.358388,229.308273 C508.662639,229.825003 506.930053,230.083364 505.160577,230.083364 C503.796606,230.083364 502.524814,229.917274 501.345163,229.585091 C500.165512,229.252907 499.133333,228.736185 498.248595,228.034909 C497.363857,227.333633 496.672665,226.447824 496.175,225.377455 C495.677335,224.307086 495.428506,223.033735 495.428506,221.557364 C495.428506,219.933356 495.714198,218.595414 496.285592,217.5435 C496.856985,216.491586 497.594256,215.651912 498.497426,215.024455 C499.400596,214.396997 500.432775,213.926411 501.593994,213.612682 C502.755213,213.298953 503.92563,213.049819 505.105281,212.865273 C506.284932,212.680726 507.446133,212.533091 508.58892,212.422364 C509.731707,212.311636 510.745454,212.145547 511.630192,211.924091 C512.51493,211.702635 513.215338,211.379684 513.731435,210.955227 C514.247532,210.530771 514.487145,209.91255 514.450281,209.100545 C514.450281,208.251632 514.312043,207.578048 514.035562,207.079773 C513.759081,206.581498 513.390446,206.193956 512.929645,205.917136 C512.468844,205.640317 511.934323,205.455773 511.326065,205.3635 C510.717808,205.271227 510.06348,205.225091 509.363062,205.225091 C507.81477,205.225091 506.598274,205.557269 505.713536,206.221636 C504.828797,206.886003 504.312708,207.993265 504.165251,209.543455 L496.31324,209.543455 Z M514.450281,215.356636 C514.118504,215.651911 513.703789,215.88259 513.206124,216.048682 C512.708459,216.214774 512.173938,216.353181 511.602544,216.463909 C511.031151,216.574637 510.432119,216.666909 509.805429,216.740727 C509.178739,216.814546 508.552059,216.906818 507.92537,217.017545 C507.335544,217.128273 506.754944,217.275908 506.18355,217.460455 C505.612157,217.645001 505.114499,217.894135 504.690562,218.207864 C504.266625,218.521592 503.925637,218.918361 503.667589,219.398182 C503.40954,219.878002 503.280518,220.486996 503.280518,221.225182 C503.280518,221.926458 503.40954,222.516998 503.667589,222.996818 C503.925637,223.476639 504.275841,223.854953 504.71821,224.131773 C505.160579,224.408592 505.676669,224.602363 506.266494,224.713091 C506.85632,224.823819 507.464568,224.879182 508.091257,224.879182 C509.639549,224.879182 510.837614,224.620821 511.685488,224.104091 C512.533362,223.587361 513.160042,222.96914 513.565547,222.249409 C513.971052,221.529678 514.219881,220.800731 514.312041,220.062545 C514.404202,219.32436 514.450281,218.73382 514.450281,218.290909 L514.450281,215.356636 Z M529.73037,206.000182 L529.73037,229.363636 L537.582382,229.363636 L537.582382,206.000182 L543.001376,206.000182 L543.001376,200.740636 L537.582382,200.740636 L537.582382,199.024364 C537.582382,197.843267 537.812779,197.003593 538.27358,196.505318 C538.734381,196.007043 539.499299,195.757909 540.568358,195.757909 C541.563688,195.757909 542.52214,195.813272 543.443743,195.924 L543.443743,190.055455 C542.780189,190.018545 542.098214,189.972409 541.397796,189.917045 C540.697378,189.861682 539.996971,189.834 539.296553,189.834 C536.089377,189.834 533.693248,190.645992 532.108092,192.27 C530.522936,193.894008 529.73037,195.979351 529.73037,198.526091 L529.73037,200.740636 L525.030222,200.740636 L525.030222,206.000182 L529.73037,206.000182 Z M546.06108,200.740636 L546.06108,229.363636 L553.913092,229.363636 L553.913092,216.463909 C553.913092,215.172084 554.042114,213.972551 554.300163,212.865273 C554.558211,211.757994 554.991358,210.789141 555.599615,209.958682 C556.207873,209.128223 557.009655,208.473093 558.004985,207.993273 C559.000316,207.513452 560.216812,207.273545 561.654512,207.273545 C562.133745,207.273545 562.631403,207.301227 563.1475,207.356591 C563.663597,207.411955 564.10596,207.476545 564.474601,207.550364 L564.474601,200.242364 C563.847911,200.057817 563.276526,199.965545 562.760429,199.965545 C561.765099,199.965545 560.806647,200.11318 559.885044,200.408455 C558.963442,200.703729 558.097149,201.118952 557.286139,201.654136 C556.475129,202.189321 555.75629,202.835223 555.129601,203.591864 C554.502911,204.348504 554.005253,205.169723 553.636612,206.055545 L553.526021,206.055545 L553.526021,200.740636 L546.06108,200.740636 Z M585.450163,211.979455 C585.081522,209.986354 584.427194,208.473096 583.48716,207.439636 C582.547125,206.406177 581.118663,205.889455 579.201731,205.889455 C577.948352,205.889455 576.906957,206.10168 576.077515,206.526136 C575.248073,206.950593 574.584529,207.476542 574.086864,208.104 C573.589199,208.731458 573.238995,209.395815 573.036243,210.097091 C572.83349,210.798367 572.713684,211.425815 572.67682,211.979455 L585.450163,211.979455 Z M572.67682,216.962182 C572.787412,219.508922 573.432524,221.354358 574.612175,222.498545 C575.791825,223.642733 577.487548,224.214818 579.699393,224.214818 C581.284549,224.214818 582.6485,223.818049 583.791287,223.0245 C584.934074,222.230951 585.634481,221.391277 585.89253,220.505455 L592.804512,220.505455 C591.698589,223.938017 590.002866,226.392447 587.717293,227.868818 C585.431719,229.345189 582.666954,230.083364 579.422914,230.083364 C577.174205,230.083364 575.14671,229.723504 573.34037,229.003773 C571.534029,228.284042 570.004193,227.259825 568.750814,225.931091 C567.497435,224.602357 566.529767,223.015282 565.847781,221.169818 C565.165795,219.324354 564.824808,217.294375 564.824808,215.079818 C564.824808,212.93908 565.175011,210.946009 565.875429,209.100545 C566.575847,207.255082 567.571162,205.658779 568.861405,204.311591 C570.151648,202.964402 571.690701,201.903277 573.478609,201.128182 C575.266518,200.353087 577.247933,199.965545 579.422914,199.965545 C581.855944,199.965545 583.975597,200.436132 585.781938,201.377318 C587.588278,202.318505 589.072036,203.582628 590.233254,205.169727 C591.394473,206.756826 592.233119,208.565353 592.749216,210.595364 C593.265313,212.625374 593.449631,214.747625 593.302175,216.962182 L572.67682,216.962182 Z M617.04253,210.816818 L624.728654,210.816818 C624.618062,208.971354 624.175699,207.375052 623.401553,206.027864 C622.627407,204.680675 621.622876,203.554959 620.387929,202.650682 C619.152982,201.746405 617.752168,201.07282 616.185444,200.629909 C614.61872,200.186998 612.987508,199.965545 611.29176,199.965545 C608.969323,199.965545 606.904965,200.353087 605.098624,201.128182 C603.292284,201.903277 601.762447,202.982857 600.509068,204.366955 C599.255689,205.751052 598.306453,207.39349 597.661331,209.294318 C597.01621,211.195146 596.693654,213.252807 596.693654,215.467364 C596.693654,217.608102 597.043857,219.573491 597.744275,221.363591 C598.444693,223.153691 599.421577,224.69463 600.674956,225.986455 C601.928335,227.278279 603.448956,228.284042 605.236864,229.003773 C607.024772,229.723504 608.987756,230.083364 611.125873,230.083364 C614.922874,230.083364 618.037843,229.086828 620.470873,227.093727 C622.903903,225.100626 624.378444,222.203292 624.894541,218.401636 L617.319009,218.401636 C617.06096,220.173282 616.425064,221.58504 615.411302,222.636955 C614.397539,223.688869 612.950645,224.214818 611.070577,224.214818 C609.854062,224.214818 608.821883,223.938003 607.974009,223.384364 C607.126135,222.830725 606.453375,222.120232 605.95571,221.252864 C605.458045,220.385496 605.098625,219.416642 604.877441,218.346273 C604.656256,217.275904 604.545666,216.224005 604.545666,215.190545 C604.545666,214.120176 604.656256,213.040596 604.877441,211.951773 C605.098625,210.862949 605.476477,209.866414 606.011006,208.962136 C606.545535,208.057859 607.236727,207.319685 608.084601,206.747591 C608.932475,206.175497 609.983085,205.889455 611.236464,205.889455 C614.591097,205.889455 616.526432,207.531893 617.04253,210.816818 Z M628.949571,189.834 L628.949571,229.363636 L636.801583,229.363636 L636.801583,214.360091 C636.801583,211.444258 637.280809,209.349688 638.239275,208.076318 C639.197741,206.802948 640.74601,206.166273 642.884127,206.166273 C644.764196,206.166273 646.072851,206.747585 646.810133,207.910227 C647.547415,209.072869 647.91605,210.835261 647.91605,213.197455 L647.91605,229.363636 L655.768062,229.363636 L655.768062,211.758 C655.768062,209.986355 655.611392,208.371598 655.298047,206.913682 C654.984703,205.455765 654.440965,204.219323 653.66682,203.204318 C652.892674,202.189313 651.832847,201.395776 650.487308,200.823682 C649.141768,200.251588 647.418398,199.965545 645.317145,199.965545 C643.842581,199.965545 642.331176,200.34386 640.782885,201.1005 C639.234593,201.85714 637.962801,203.065901 636.96747,204.726818 L636.801583,204.726818 L636.801583,189.834 L628.949571,189.834 Z M671.32463,200.740636 L671.32463,192.159273 L663.472618,192.159273 L663.472618,200.740636 L658.717175,200.740636 L658.717175,206.000182 L663.472618,206.000182 L663.472618,222.886091 C663.472618,224.325553 663.712231,225.488177 664.191464,226.374 C664.670698,227.259823 665.325025,227.942634 666.154467,228.422455 C666.983909,228.902275 667.942361,229.225226 669.029852,229.391318 C670.117343,229.55741 671.269328,229.640455 672.485843,229.640455 C673.259989,229.640455 674.052555,229.622 674.863565,229.585091 C675.674575,229.548182 676.411846,229.474364 677.075399,229.363636 L677.075399,223.273636 C676.706759,223.347455 676.319691,223.402818 675.914186,223.439727 C675.508681,223.476637 675.084751,223.495091 674.642382,223.495091 C673.315274,223.495091 672.43055,223.273639 671.98818,222.830727 C671.545811,222.387816 671.32463,221.502007 671.32463,220.173273 L671.32463,206.000182 L677.075399,206.000182 L677.075399,200.740636 L671.32463,200.740636 Z" id="Strafrecht-Copy" fill="#000000"></path>
            </g>
        </g>
    </g>
</svg>